<svg id="SILHOUET" 
    xmlns="http://www.w3.org/2000/svg" width="1032" height="232">
    <style>.st0{fill:#fff}</style>
    <path class="st0" d="M978.1 99.2H773.6c-.3-16.6-13.9-32-30.6-32-8.5 0-16.3 3.5-21.8 9.1-5-11.9-16.7-20.2-30.3-20.3-18.2-.1-33.1 15.5-33.1 33.7v9h-9.5c-18.3 0-33.2 14.8-33.2 33.2H591l-12-15.6V90.9h4.1v-5.5h-22.2v5.5h3.7v6.8l-22.4-29.1-48.2 63.3h-14.2v11.8h8.2l-.2 37.5h-5.7v-7.1l-4.8-4.8-2.3 2.4v-12c0-7.3-5.6-13.5-12.8-13.9-7.8-.4-14.2 5.8-14.2 13.5v11.2l-1.2-1.2-4.8 4.8v7.1h-5.7v-4c.9-2.1 1.4-4.4 1.2-6.9-.6-7.6-7.2-13.5-14.7-13.3-7.8.2-14 6.6-14 14.4 0 3.1 1 6 2.7 8.4v1.5h-5.7v-7.1l-4.8-4.8-4.8 4.8v7.1h-5.7v-7.1l-4.8-4.8-4.8 4.8v7.1h-5.7v-7.1l-4.8-4.8-4.8 4.8v7.1h-5.7v-7.1l-4.8-4.8-4.8 4.8V196c-5.3-1.7-11-2.8-17.6-2.8-2.9 0-5.7.2-8.5.6v-15.4c10.3-1.3 18.3-10 18.3-20.6V111c0-11.5-9.3-20.8-20.8-20.8s-20.8 9.3-20.8 20.8v46.8c0 10.6 8 19.4 18.3 20.6v16.3c-16.9 3.8-31 13.4-51 15.1h-6.1v-36.7h.5c1.4 0 2.5-1.1 2.5-2.5v-2.7c0-1.4-1.1-2.5-2.5-2.5h-28.1v-13.1l-39.2-58.4-39.2 58.4L117 93.8l-39 58.1-39-58.1-39.2 58.4v61.6H545c5-5.5 12.2-9 20.4-9 3.4 0 6.7.6 9.8 1.8V196h-14l10-18.9h-5.9l7.3-13.7h-4.8l12.8-24.1 11.4 24.1h-4l6.5 13.7h-4.8l8.9 18.9h-14v8.9c7.5-6 17-9.6 27.5-9.6 14.9 0 28.1 7.3 35.9 18.5h375.7v-69.1c-.1-25-20.6-45.5-45.6-45.5zM46.4 148.4H31.7V127h14.7v21.4zm77.7 0h-14.7V127h14.7v21.4zm62 38.3h-17.7v-20.1h17.7v20.1zM189 127h14.7v21.3H189V127zm20.5 59.7h-17.7v-20.1h17.7v20.1zm17.4 15.3c-.9 0-1.7-.7-1.7-1.7 0-.9.7-1.7 1.7-1.7.9 0 1.7.7 1.7 1.7-.1.9-.8 1.7-1.7 1.7zm2.4 7.8v-.1c.1-.2.2-.5.2-.8v-3.8h18.4v3.8c0 .3.1.6.2.9h-18.8zm.7-14.3l3-8.8h12.4l2 8.8H230zm12.8 4.8v2.3h-8.4v-2.3h8.4zm8.5 1.7c-.9 0-1.7-.7-1.7-1.7 0-.9.7-1.7 1.7-1.7.9 0 1.7.7 1.7 1.7 0 .9-.8 1.7-1.7 1.7zm7.4 7.8h-6c.2-.3.2-.5.2-.9v-3.8h1.5V199c0-1.9-1.6-3.5-3.5-3.5h-.3l-1.8-7.6c-.5-2-2.3-3.4-4.3-3.4H234c-1.8 0-3.5 1.1-4.2 2.8l-2.9 8.2h-.2c-1.9 0-3.5 1.6-3.5 3.5v6.2h1.4v3.8c0 .3.1.6.2.9h-5.9v-36.7h39.8v36.6zm107.2-11.1h-5.7V189h5.7v9.7zm15.3 9.2c-1.5-.4-3-.9-4.5-1.4h4.5v1.4zm0-9.2h-5.7V189h5.7v9.7zm15.2 11.1h-5.7v-3.2h5.7v3.2zm0-11.1h-5.7V189h5.7v9.7zm15.3 11.1H406v-3.3h5.7v3.3zm0-11.1H406V189h5.7v9.7zm15.2 11.1h-5.7v-3.3h5.7v3.3zm0-11.1h-5.7V189h5.7v9.7zm15.2 11.1h-5.7v-3.3h5.7v3.3zm0-11.1h-5.7V189h5.7v9.7zm15.3 11.1h-5.7v-3.3h5.7v3.3zm0-11.1h-5.7v-9.2c1.5 1.7 3.5 3 5.7 3.7v5.5zm15.2 11.1h-5.7v-3.3h5.7v3.3zm0-11.1h-5.7v-6c1.9-.8 3.6-2.1 5-3.7h.8v9.7zm15.1 11.1h-5.5v-3.3h5.5v3.3zm0-11.1h-5.6V189h5.6v9.7zm52.3-72.1h-12.5v-19H540v19zm17.8 0h-12.5v-19h12.5v19z"/>
</svg>
