<?xml version="1.0" encoding="iso-8859-1"?>
<!-- Generator: Adobe Illustrator 19.0.0, SVG Export Plug-In . SVG Version: 6.00 Build 0)  -->
<svg version="1.1" id="Layer_1" xmlns="http://www.w3.org/2000/svg" xmlns:xlink="http://www.w3.org/1999/xlink" x="0px" y="0px"
	 viewBox="0 0 512 512" style="enable-background:new 0 0 512 512;" xml:space="preserve">
<path style="fill:#1E0478;" d="M506.556,208.066c5.933,4.337,7.21,12.665,2.874,18.585c-2.607,3.565-6.652,5.454-10.736,5.454
	c-2.727,0-5.481-0.838-7.849-2.581l-35.294-25.835v267.211c0,7.343-5.96,13.303-13.303,13.303H309.213
	c-6.998,0-12.718-5.414-13.25-12.279c-0.027-0.306-0.053-0.639-0.053-1.024V342.005c0-22.004-17.906-39.91-39.91-39.91
	s-39.91,17.906-39.91,39.91v128.896c0,0.386-0.027,0.718-0.053,1.038c-0.532,6.865-6.253,12.266-13.25,12.266H69.753
	c-7.343,0-13.303-5.96-13.303-13.303V203.689l-35.294,25.835c-5.92,4.35-14.248,3.06-18.585-2.874
	c-4.337-5.92-3.06-14.248,2.874-18.585L248.138,30.36c4.683-3.419,11.042-3.419,15.725,0L506.556,208.066z M428.944,457.598
	l0.12-273.304L256,57.592L82.936,184.293l0.12,273.304h106.427V342.005c0-36.677,29.839-66.517,66.517-66.517
	s66.517,29.839,66.517,66.517v115.593H428.944z"/>
<path style="fill:#94E7EF;" d="M429.063,184.293l-0.12,273.304H322.517V342.005c0-36.677-29.839-66.517-66.517-66.517
	s-66.517,29.839-66.517,66.517v115.593H83.056l-0.12-273.304L256,57.592L429.063,184.293z"/>
<g>
</g>
<g>
</g>
<g>
</g>
<g>
</g>
<g>
</g>
<g>
</g>
<g>
</g>
<g>
</g>
<g>
</g>
<g>
</g>
<g>
</g>
<g>
</g>
<g>
</g>
<g>
</g>
<g>
</g>
</svg>
